<?xml version="1.0" encoding="UTF-8"?>
<!DOCTYPE svg PUBLIC "-//W3C//DTD SVG 1.1//EN" "http://www.w3.org/Graphics/SVG/1.1/DTD/svg11.dtd">
<svg version="1.2" width="79.15mm" height="80.82mm" viewBox="7263 9342 7915 8082" preserveAspectRatio="xMidYMid" fill-rule="evenodd" stroke-width="28.222" stroke-linejoin="round" xmlns="http://www.w3.org/2000/svg" xmlns:ooo="http://xml.openoffice.org/svg/export" xmlns:xlink="http://www.w3.org/1999/xlink" xmlns:presentation="http://sun.com/xmlns/staroffice/presentation" xmlns:smil="http://www.w3.org/2001/SMIL20/" xmlns:anim="urn:oasis:names:tc:opendocument:xmlns:animation:1.0" xml:space="preserve">
 <defs class="EmbeddedBulletChars">
  <g id="bullet-char-template-57356" transform="scale(0.00048828125,-0.00048828125)">
   <path d="M 580,1141 L 1163,571 580,0 -4,571 580,1141 Z"/>
  </g>
  <g id="bullet-char-template-57354" transform="scale(0.00048828125,-0.00048828125)">
   <path d="M 8,1128 L 1137,1128 1137,0 8,0 8,1128 Z"/>
  </g>
  <g id="bullet-char-template-10146" transform="scale(0.00048828125,-0.00048828125)">
   <path d="M 174,0 L 602,739 174,1481 1456,739 174,0 Z M 1358,739 L 309,1346 659,739 1358,739 Z"/>
  </g>
  <g id="bullet-char-template-10132" transform="scale(0.00048828125,-0.00048828125)">
   <path d="M 2015,739 L 1276,0 717,0 1260,543 174,543 174,936 1260,936 717,1481 1274,1481 2015,739 Z"/>
  </g>
  <g id="bullet-char-template-10007" transform="scale(0.00048828125,-0.00048828125)">
   <path d="M 0,-2 C -7,14 -16,27 -25,37 L 356,567 C 262,823 215,952 215,954 215,979 228,992 255,992 264,992 276,990 289,987 310,991 331,999 354,1012 L 381,999 492,748 772,1049 836,1024 860,1049 C 881,1039 901,1025 922,1006 886,937 835,863 770,784 769,783 710,716 594,584 L 774,223 C 774,196 753,168 711,139 L 727,119 C 717,90 699,76 672,76 641,76 570,178 457,381 L 164,-76 C 142,-110 111,-127 72,-127 30,-127 9,-110 8,-76 1,-67 -2,-52 -2,-32 -2,-23 -1,-13 0,-2 Z"/>
  </g>
  <g id="bullet-char-template-10004" transform="scale(0.00048828125,-0.00048828125)">
   <path d="M 285,-33 C 182,-33 111,30 74,156 52,228 41,333 41,471 41,549 55,616 82,672 116,743 169,778 240,778 293,778 328,747 346,684 L 369,508 C 377,444 397,411 428,410 L 1163,1116 C 1174,1127 1196,1133 1229,1133 1271,1133 1292,1118 1292,1087 L 1292,965 C 1292,929 1282,901 1262,881 L 442,47 C 390,-6 338,-33 285,-33 Z"/>
  </g>
  <g id="bullet-char-template-9679" transform="scale(0.00048828125,-0.00048828125)">
   <path d="M 813,0 C 632,0 489,54 383,161 276,268 223,411 223,592 223,773 276,916 383,1023 489,1130 632,1184 813,1184 992,1184 1136,1130 1245,1023 1353,916 1407,772 1407,592 1407,412 1353,268 1245,161 1136,54 992,0 813,0 Z"/>
  </g>
  <g id="bullet-char-template-8226" transform="scale(0.00048828125,-0.00048828125)">
   <path d="M 346,457 C 273,457 209,483 155,535 101,586 74,649 74,723 74,796 101,859 155,911 209,963 273,989 346,989 419,989 480,963 531,910 582,859 608,796 608,723 608,648 583,586 532,535 482,483 420,457 346,457 Z"/>
  </g>
  <g id="bullet-char-template-8211" transform="scale(0.00048828125,-0.00048828125)">
   <path d="M -4,459 L 1135,459 1135,606 -4,606 -4,459 Z"/>
  </g>
  <g id="bullet-char-template-61548" transform="scale(0.00048828125,-0.00048828125)">
   <path d="M 173,740 C 173,903 231,1043 346,1159 462,1274 601,1332 765,1332 928,1332 1067,1274 1183,1159 1299,1043 1357,903 1357,740 1357,577 1299,437 1183,322 1067,206 928,148 765,148 601,148 462,206 346,322 231,437 173,577 173,740 Z"/>
  </g>
 </defs>
 <g class="Page">
  <g class="com.sun.star.drawing.CustomShape">
   <g id="id3">
    <rect class="BoundingBox" stroke="none" fill="none" x="7263" y="9342" width="7915" height="8082"/>
    <path fill="rgb(156,39,176)" fill-opacity="0.929" stroke="rgb(255,255,255)" stroke-opacity="0.929" d="M 13350,15409 C 12787,16001 12135,16489 11460,16823 10786,17158 10112,17328 9507,17316 8901,17304 8386,17111 8012,16755 7638,16399 7419,15894 7377,15290 7335,14686 7471,14005 7772,13314 8072,12624 8527,11949 9090,11357 9653,10765 10305,10277 10980,9942 11654,9607 12328,9437 12933,9449 13539,9461 14054,9655 14428,10010 14802,10366 15021,10871 15063,11475 15105,12079 14969,12761 14668,13451 14368,14142 13913,14817 13350,15409 L 13350,15409 Z"/>
    <path fill="none" stroke="rgb(156,39,176)" stroke-width="212" stroke-linejoin="round" d="M 13350,15409 C 12787,16001 12135,16489 11460,16823 10786,17158 10112,17328 9507,17316 8901,17304 8386,17111 8012,16755 7638,16399 7419,15894 7377,15290 7335,14686 7471,14005 7772,13314 8072,12624 8527,11949 9090,11357 9653,10765 10305,10277 10980,9942 11654,9607 12328,9437 12933,9449 13539,9461 14054,9655 14428,10010 14802,10366 15021,10871 15063,11475 15105,12079 14969,12761 14668,13451 14368,14142 13913,14817 13350,15409 L 13350,15409 Z"/>
   </g>
  </g>
  <g class="Graphic">
   <g id="id4">
    <rect class="BoundingBox" stroke="none" fill="none" x="8630" y="10684" width="5061" height="5061"/>
    <defs>
     <clipPath id="clip_path_1" clipPathUnits="userSpaceOnUse">
      <path d="M 8630,10684 L 13690,10684 13690,15744 8630,15744 8630,10684 Z"/>
     </clipPath>
    </defs>
    <g clip-path="url(#clip_path_1)">
     <path fill="rgb(0,0,0)" stroke="none" d="M 11160,10684 C 9988,10684 9165,12648 9165,13712 9165,14256 9369,14766 9740,15147 10114,15532 10618,15744 11160,15744 11702,15744 12206,15532 12581,15147 12951,14766 13155,14256 13155,13712 13155,12648 12332,10684 11160,10684 L 11160,10684 Z M 12760,13712 C 12760,14629 12057,15348 11160,15348 10263,15348 9560,14629 9560,13712 9560,13227 9759,12545 10054,12013 10384,11420 10787,11080 11160,11080 11533,11080 11936,11420 12266,12013 12561,12545 12760,13227 12760,13712 L 12760,13712 Z"/>
    </g>
   </g>
  </g>
  <g class="Graphic">
   <title>RISC-V logo
   </title>
   <g id="id5">
    <rect class="BoundingBox" stroke="none" fill="none" x="9810" y="13383" width="2832" height="470"/>
    <defs>
     <clipPath id="clip_path_2" clipPathUnits="userSpaceOnUse">
      <path d="M 9810,13383 L 12641,13383 12641,13852 9810,13852 9810,13383 Z"/>
     </clipPath>
    </defs>
    <g clip-path="url(#clip_path_2)">
     <path fill="rgb(243,171,13)" stroke="none" d="M 10072,13530 C 10072,13598 10031,13660 9951,13674 L 10064,13809 10074,13794 10279,13505 10279,13383 9946,13383 C 10031,13391 10072,13461 10072,13530 Z"/>
     <path fill="rgb(40,50,113)" stroke="none" d="M 10130,13831 L 10281,13620 10281,13852 10115,13852 10130,13831 Z M 9839,13612 L 9918,13612 C 9975,13612 10004,13571 10004,13529 10004,13488 9975,13449 9918,13449 L 9810,13449 9810,13852 10011,13852 9839,13645 9839,13612 Z"/>
     <path fill="rgb(40,50,113)" stroke="none" d="M 10969,13782 L 11037,13782 11037,13464 10969,13464 10969,13782 Z"/>
     <path fill="rgb(40,50,113)" stroke="none" d="M 11186,13654 C 11159,13654 11136,13645 11118,13627 11099,13608 11089,13585 11089,13559 11089,13532 11099,13509 11118,13490 11136,13472 11159,13461 11186,13461 L 11544,13461 11544,13530 11186,13530 C 11178,13530 11172,13534 11165,13538 11159,13542 11157,13550 11157,13559 11157,13567 11161,13573 11165,13579 11170,13585 11178,13588 11186,13588 L 11446,13588 C 11473,13588 11496,13598 11515,13616 11533,13635 11544,13658 11544,13685 11544,13712 11533,13734 11515,13753 11496,13771 11473,13782 11446,13782 L 11089,13782 11089,13712 11446,13712 C 11455,13712 11461,13707 11467,13703 11473,13699 11475,13691 11475,13683 11475,13674 11471,13668 11467,13662 11463,13656 11455,13654 11446,13654 L 11186,13654 Z"/>
     <path fill="rgb(40,50,113)" stroke="none" d="M 11736,13464 L 12031,13464 12031,13532 11736,13532 C 11711,13532 11690,13540 11671,13559 11653,13577 11645,13598 11645,13623 11645,13647 11653,13668 11671,13687 11690,13705 11711,13714 11736,13714 L 12031,13714 12031,13782 11736,13782 C 11692,13782 11655,13767 11624,13736 11593,13705 11578,13668 11578,13625 11578,13581 11593,13544 11624,13513 11655,13480 11692,13464 11736,13464 Z"/>
     <path fill="rgb(40,50,113)" stroke="none" d="M 10919,13782 L 10828,13656 C 10853,13654 10874,13646 10890,13627 10909,13608 10919,13586 10919,13559 10919,13532 10909,13509 10890,13491 10872,13472 10849,13462 10822,13462 L 10465,13462 10465,13780 10533,13780 10533,13656 10744,13656 10835,13782 10919,13782 Z M 10533,13532 L 10822,13532 C 10831,13532 10837,13536 10843,13540 10849,13544 10851,13553 10851,13561 10851,13569 10847,13575 10843,13582 10839,13588 10831,13590 10822,13590 L 10533,13590 10533,13532 Z"/>
     <path fill="rgb(243,171,13)" stroke="none" d="M 12372,13782 L 12186,13464 12265,13464 12411,13716 12558,13464 12637,13464 12451,13782 Z"/>
     <path fill="rgb(243,171,13)" stroke="none" d="M 12073,13654 L 12207,13654 12207,13592 12073,13592 12073,13654 Z"/>
    </g>
   </g>
  </g>
 </g>
</svg>